HIERARCHY
ROOT joint_Root
{
	OFFSET 0.0 0.0 0.0
	CHANNELS 6 Xposition Yposition Zposition Zrotation Xrotation Yrotation 
	JOINT Hips
	{
		OFFSET -17.1583 93.1646 452.98
		CHANNELS 6 Xposition Yposition Zposition Zrotation Xrotation Yrotation 
		JOINT Spine
		{
			OFFSET 15.7357 0.0 0.0
			CHANNELS 6 Xposition Yposition Zposition Zrotation Xrotation Yrotation 
			JOINT Chest
			{
				OFFSET 8.98455 -0.406207 0.0
				CHANNELS 6 Xposition Yposition Zposition Zrotation Xrotation Yrotation 
				JOINT Neck
				{
					OFFSET 16.3773 0.0 0.0
					CHANNELS 6 Xposition Yposition Zposition Zrotation Xrotation Yrotation 
					JOINT Head
					{
						OFFSET 6.45672 0.0 0.0
						CHANNELS 6 Xposition Yposition Zposition Zrotation Xrotation Yrotation 
						End Site
						{
							OFFSET 0.0 0.0 0.0
						}
					}
				}
				JOINT Shoulder_L
				{
					OFFSET 12.9942 -0.242716 4.98039
					CHANNELS 6 Xposition Yposition Zposition Zrotation Xrotation Yrotation 
					JOINT UpperArm_L
					{
						OFFSET 5.34809 0.0 0.0
						CHANNELS 6 Xposition Yposition Zposition Zrotation Xrotation Yrotation 
						JOINT LowerArm_L
						{
							OFFSET 24.3286 1.87007e-05 0.0
							CHANNELS 6 Xposition Yposition Zposition Zrotation Xrotation Yrotation 
							JOINT Hand_L
							{
								OFFSET 22.2916 0.0 0.0
								CHANNELS 6 Xposition Yposition Zposition Zrotation Xrotation Yrotation 
								End Site
								{
									OFFSET 0.0 0.0 0.0
								}
							}
						}
					}
				}
				JOINT Shoulder_R
				{
					OFFSET 12.9945 -0.242716 -4.98039
					CHANNELS 6 Xposition Yposition Zposition Zrotation Xrotation Yrotation 
					JOINT UpperArm_R
					{
						OFFSET -5.34813 0.0 0.0
						CHANNELS 6 Xposition Yposition Zposition Zrotation Xrotation Yrotation 
						JOINT LowerArm_R
						{
							OFFSET -24.3289 0.000322201 0.0
							CHANNELS 6 Xposition Yposition Zposition Zrotation Xrotation Yrotation 
							JOINT Hand_R
							{
								OFFSET -22.2915 -0.000108084 0.0
								CHANNELS 6 Xposition Yposition Zposition Zrotation Xrotation Yrotation 
								End Site
								{
									OFFSET 0.0 0.0 0.0
								}
							}
						}
					}
				}
			}
		}
		JOINT UpperLeg_L
		{
			OFFSET -2.19248 -6.46944 0.0
			CHANNELS 6 Xposition Yposition Zposition Zrotation Xrotation Yrotation 
			JOINT LowerLeg_L
			{
				OFFSET 39.0811 0.0 -1.23785e-05
				CHANNELS 6 Xposition Yposition Zposition Zrotation Xrotation Yrotation 
				JOINT Foot_L
				{
					OFFSET 40.9854 0.0 -1.26872e-05
					CHANNELS 6 Xposition Yposition Zposition Zrotation Xrotation Yrotation 
					JOINT Toes_L
					{
						OFFSET 11.7543 0.0 0.0
						CHANNELS 6 Xposition Yposition Zposition Zrotation Xrotation Yrotation 
						End Site
						{
							OFFSET 0.0 0.0 0.0
						}
					}
				}
			}
		}
		JOINT UpperLeg_R
		{
			OFFSET -2.19251 6.46944 0.0
			CHANNELS 6 Xposition Yposition Zposition Zrotation Xrotation Yrotation 
			JOINT LowerLeg_R
			{
				OFFSET -39.0811 -0.00228153 -0.0401928
				CHANNELS 6 Xposition Yposition Zposition Zrotation Xrotation Yrotation 
				JOINT Foot_R
				{
					OFFSET -40.9854 0.0 0.0
					CHANNELS 6 Xposition Yposition Zposition Zrotation Xrotation Yrotation 
					JOINT Toes_R
					{
						OFFSET -11.7543 0.0 0.0
						CHANNELS 6 Xposition Yposition Zposition Zrotation Xrotation Yrotation 
						End Site
						{
							OFFSET 0.0 0.0 0.0
						}
					}
				}
			}
		}
	}
}
MOTION
Frames:	6
Frame Time:	0.0333333
0.000000 0.000000 0.000000 0.000000 0.000000 -0.000000 -3.729850 91.633800 0.788682 85.993500 -1.868910 7.444810 15.735700 0.000005 -0.000001 90.029800 85.711900 -87.873800 8.984550 -0.406207 -0.000000 0.816209 -0.126215 4.309460 16.377300 -0.000001 -0.000001 13.625700 1.801460 -13.628400 6.456720 -0.000001 -0.000000 -6.077430 3.216240 -21.652500 12.994200 -0.242716 4.980390 -93.500000 8.861430 -68.344900 5.348090 -0.000007 -0.000001 -75.491500 -6.632140 -13.814400 24.328600 0.000019 0.000005 32.936100 -37.147700 -132.989000 22.291600 -0.000001 0.000005 40.945100 5.176010 3.313050 12.994500 -0.242716 -4.980390 87.702100 6.106250 -69.331900 -5.348130 -0.000001 -0.000004 -68.360800 33.365500 -5.541720 -24.328900 0.000322 -0.000009 1.031220 3.629990 -15.886100 -22.291500 -0.000108 -0.000004 -2.532530 5.291550 0.308152 -2.192480 -6.469440 -0.000000 -174.874000 1.474690 1.263170 39.081100 -0.000007 -0.000012 0.377061 -0.720535 27.624300 40.985400 -0.000006 -0.000013 0.663478 4.112660 -77.062400 11.754300 -0.000000 0.000003 -0.000418 0.174387 -9.503390 -2.192510 6.469440 -0.000001 -172.104000 7.780040 -172.467000 -39.081100 -0.002282 -0.040193 0.174518 -0.562964 16.914200 -40.985400 0.000008 0.000006 6.397120 2.616230 -73.131400 -11.754300 -0.000006 -0.000006 -0.011435 0.281730 -5.124380
0.000000 0.000000 0.000000 0.000000 0.000000 -0.000000 -3.812050 91.640700 0.804989 86.021200 -1.825840 7.391860 15.735700 0.000005 -0.000001 89.949400 85.716600 -87.795900 8.984550 -0.406207 -0.000000 0.807001 -0.138263 4.304700 16.377300 -0.000001 -0.000001 13.612500 1.821040 -13.591300 6.456720 -0.000001 -0.000000 -6.099090 3.257410 -21.611800 12.994200 -0.242716 4.980390 -93.494900 8.848410 -68.344900 5.348090 -0.000007 -0.000001 -75.420600 -6.772250 -13.800100 24.328600 0.000019 0.000005 32.721700 -36.911300 -133.067000 22.291600 -0.000001 0.000005 40.495200 5.170270 3.453930 12.994500 -0.242716 -4.980390 87.697500 6.125430 -69.352800 -5.348130 -0.000001 -0.000004 -68.427400 33.308100 -5.475940 -24.328900 0.000322 -0.000009 1.054530 3.711620 -15.887900 -22.291500 -0.000108 -0.000004 -2.651810 5.293780 0.246092 -2.192480 -6.469440 -0.000000 -174.817000 1.439260 1.264710 39.081100 -0.000007 -0.000012 0.372530 -0.714547 27.536300 40.985400 -0.000006 -0.000013 0.624884 4.227270 -77.041100 11.754300 -0.000000 0.000003 -0.000253 0.171781 -9.609240 -2.192510 6.469440 -0.000001 -172.114000 7.929120 -172.441000 -39.081100 -0.002282 -0.040193 0.171810 -0.558599 16.784500 -40.985400 0.000008 0.000006 6.472570 2.762160 -73.110200 -11.754300 -0.000006 -0.000006 -0.011295 0.280740 -5.164920
0.000000 0.000000 0.000000 0.000000 0.000000 -0.000000 -3.893020 91.634300 0.818024 85.996500 -1.797580 7.326770 15.735700 0.000005 -0.000001 89.792500 85.713300 -87.623100 8.984550 -0.406207 -0.000000 0.814138 -0.162556 4.336620 16.377300 -0.000001 -0.000001 13.555800 1.817940 -13.499500 6.456720 -0.000001 -0.000000 -6.137050 3.274980 -21.609700 12.994200 -0.242716 4.980390 -93.510600 8.858310 -68.278200 5.348090 -0.000007 -0.000001 -75.295300 -6.919810 -13.868700 24.328600 0.000019 0.000005 32.888200 -36.847600 -132.843000 22.291600 -0.000001 0.000005 40.452900 5.164240 3.600180 12.994500 -0.242716 -4.980390 87.678700 6.170610 -69.337200 -5.348130 -0.000001 -0.000004 -68.407500 33.438700 -5.499950 -24.328900 0.000322 -0.000009 1.016360 3.569050 -15.922400 -22.291500 -0.000108 -0.000004 -2.505500 5.292860 0.271616 -2.192480 -6.469440 -0.000000 -174.745000 1.446440 1.175970 39.081100 -0.000007 -0.000012 0.376361 -0.720532 27.580700 40.985400 -0.000006 -0.000013 0.574714 4.233170 -77.055400 11.754300 -0.000000 0.000003 -0.000234 0.171479 -9.621500 -2.192510 6.469440 -0.000001 -172.061000 8.081090 -172.463000 -39.081100 -0.002282 -0.040193 0.171813 -0.560776 16.723300 -40.985400 0.000008 0.000006 6.539980 2.854170 -73.132200 -11.754300 -0.000006 -0.000006 -0.011551 0.282553 -5.090680
0.000000 0.000000 0.000000 0.000000 0.000000 -0.000000 -3.965120 91.628600 0.845730 85.997000 -1.735230 7.297600 15.735700 0.000005 -0.000001 89.737000 85.715300 -87.563300 8.984550 -0.406207 -0.000000 0.810165 -0.171171 4.345120 16.377300 -0.000001 -0.000001 13.577500 1.793490 -13.407500 6.456720 -0.000001 -0.000000 -6.184770 3.242780 -21.558500 12.994200 -0.242716 4.980390 -93.535900 8.955450 -68.349600 5.348090 -0.000007 -0.000001 -75.105600 -7.324300 -13.947400 24.328600 0.000019 0.000005 32.816200 -36.599800 -132.756000 22.291600 -0.000001 0.000005 40.380800 5.168390 3.499480 12.994500 -0.242716 -4.980390 87.662900 6.208750 -69.324800 -5.348130 -0.000001 -0.000004 -68.442000 33.316800 -5.494990 -24.328900 0.000322 -0.000009 1.041460 3.669430 -15.872100 -22.291500 -0.000108 -0.000004 -2.553340 5.294950 0.213440 -2.192480 -6.469440 -0.000000 -174.689000 1.457010 1.161180 39.081100 -0.000007 -0.000012 0.380126 -0.727467 27.589500 40.985400 -0.000006 -0.000013 0.539159 4.304480 -77.135500 11.754300 -0.000000 0.000003 -0.000316 0.172791 -9.568190 -2.192510 6.469440 -0.000001 -172.035000 8.207380 -172.445000 -39.081100 -0.002282 -0.040193 0.169757 -0.556402 16.653100 -40.985400 0.000008 0.000006 6.592860 2.888990 -73.085300 -11.754300 -0.000006 -0.000006 -0.011157 0.279756 -5.205210
0.000000 0.000000 0.000000 0.000000 0.000000 -0.000000 -4.028980 91.625300 0.890311 85.988100 -1.686680 7.256290 15.735700 0.000005 -0.000001 89.734800 85.724800 -87.552600 8.984550 -0.406207 -0.000000 0.791311 -0.172284 4.362240 16.377300 -0.000001 -0.000001 13.571800 1.747330 -13.338600 6.456720 -0.000001 -0.000000 -6.201310 3.165310 -21.513800 12.994200 -0.242716 4.980390 -93.560200 9.008980 -68.330800 5.348090 -0.000007 -0.000001 -74.917900 -7.667560 -13.943900 24.328600 0.000019 0.000005 32.555300 -36.157900 -132.743000 22.291600 -0.000001 0.000005 39.906900 5.168000 3.508910 12.994500 -0.242716 -4.980390 87.650400 6.225930 -69.276100 -5.348130 -0.000001 -0.000004 -68.444500 33.334300 -5.544180 -24.328900 0.000322 -0.000009 1.060880 3.759210 -15.787000 -22.291500 -0.000108 -0.000004 -2.586810 5.295970 0.185088 -2.192480 -6.469440 -0.000000 -174.624000 1.493170 1.155340 39.081100 -0.000007 -0.000012 0.377393 -0.722958 27.566000 40.985400 -0.000006 -0.000013 0.506655 4.374890 -77.133600 11.754300 -0.000000 0.000003 -0.000254 0.171789 -9.608900 -2.192510 6.469440 -0.000001 -172.004000 8.285530 -172.431000 -39.081100 -0.002282 -0.040193 0.167351 -0.550603 16.588900 -40.985400 0.000008 0.000006 6.546830 2.942600 -73.036800 -11.754300 -0.000006 -0.000006 -0.010918 0.278043 -5.275300
0.000000 0.000000 0.000000 0.000000 0.000000 -0.000000 -4.063580 91.628600 0.919116 86.024700 -1.713830 7.216890 15.735700 0.000005 -0.000001 90.156500 85.732900 -87.985100 8.984550 -0.406207 -0.000000 0.773858 -0.109103 4.340200 16.377300 -0.000001 -0.000001 13.573300 1.705480 -13.244600 6.456720 -0.000001 -0.000000 -6.217160 3.068400 -21.461000 12.994200 -0.242716 4.980390 -93.565600 9.018760 -68.322300 5.348090 -0.000007 -0.000001 -74.788600 -8.148310 -13.838100 24.328600 0.000019 0.000005 32.309000 -35.639900 -132.658000 22.291600 -0.000001 0.000005 39.220800 5.164500 3.594430 12.994500 -0.242716 -4.980390 87.634200 6.255490 -69.235200 -5.348130 -0.000001 -0.000004 -68.437000 33.413900 -5.564420 -24.328900 0.000322 -0.000009 1.066320 3.778850 -15.785400 -22.291500 -0.000108 -0.000004 -2.551190 5.293840 0.244586 -2.192480 -6.469440 -0.000000 -174.625000 1.412870 1.185570 39.081100 -0.000007 -0.000012 0.375947 -0.722545 27.489300 40.985400 -0.000006 -0.000013 0.487949 4.395060 -77.138500 11.754300 -0.000000 0.000003 -0.000358 0.173452 -9.541360 -2.192510 6.469440 -0.000001 -172.063000 8.411590 -172.421000 -39.081100 -0.002282 -0.040193 0.164844 -0.543706 16.545200 -40.985400 0.000008 0.000006 6.542260 3.099400 -73.014900 -11.754300 -0.000006 -0.000006 -0.011282 0.280646 -5.168780
